<?xml version="1.0" encoding="UTF-8"?>
<!DOCTYPE svg PUBLIC "-//W3C//DTD SVG 1.1//EN" "http://www.w3.org/Graphics/SVG/1.1/DTD/svg11.dtd">
<!-- Creator: CorelDRAW 2020 (64-Bit) -->
<svg xmlns="http://www.w3.org/2000/svg" xml:space="preserve" width="2480px" height="892px" version="1.1"
     style="shape-rendering:geometricPrecision; text-rendering:geometricPrecision; image-rendering:optimizeQuality; fill-rule:evenodd; clip-rule:evenodd"
     viewBox="0 0 2480 891.87"
>
 <defs>
  <style type="text/css">
   <![CDATA[
    .str0 {stroke:black;stroke-width:16.66;stroke-miterlimit:22.9256}
    .str1 {stroke:#B2B3B3;stroke-width:2.36;stroke-miterlimit:22.9256}
    .fil0 {fill:#FEFEFE;fill-rule:nonzero}
    .fil1 {fill:#FEFEFE;fill-rule:nonzero}
    .fil2 {fill:gray;fill-rule:nonzero}
   ]]>
  </style>
 </defs>
 <g id="Слой_x0020_1">
  <metadata id="CorelCorpID_0Corel-Layer"/>
  <path class="fil0" d="M1280.38 275.46l117.99 -7.63c2.69,19.29 7.62,33.65 15.7,43.97 13.01,16.15 30.95,24.22 54.73,24.22 17.5,0 31.4,-4.04 40.82,-12.56 8.98,-6.73 14.36,-17.5 14.36,-28.71 0,-10.77 -4.94,-21.09 -13.46,-27.82 -8.97,-8.07 -30.06,-16.15 -63.26,-23.33 -54.28,-12.11 -93.31,-28.26 -116.19,-48.9 -22.88,-19.29 -35.89,-47.55 -34.99,-77.61 0,-20.64 6.28,-41.27 17.94,-58.32 13.46,-19.29 31.85,-34.54 53.84,-43.07 23.77,-10.32 56.97,-15.7 98.7,-15.7 51.14,0 90.17,9.42 117.09,28.71 26.91,18.84 43.06,49.35 48,91.07l-116.64 6.73c-3.14,-17.94 -9.42,-30.95 -19.74,-39.48 -10.32,-8.52 -23.78,-12.56 -41.28,-12.56 -14.35,0 -25.12,3.14 -32.3,8.97 -6.73,5.39 -11.21,13.46 -10.76,22.43 0,6.73 3.59,13.02 8.97,17.05 5.83,5.39 19.74,10.32 41.72,14.81 54.28,11.66 92.87,23.33 116.64,35.44 23.78,12.11 40.83,26.92 51.15,44.41 10.76,17.95 16.15,38.59 15.7,59.67 0,25.12 -7.18,50.25 -21.53,71.33 -14.81,21.99 -35.45,39.03 -59.67,49.35 -25.57,11.22 -57.87,17.05 -96.46,17.05 -68.19,0 -115.29,-13.01 -141.76,-39.48 -26.47,-26.47 -42.17,-59.67 -45.31,-100.04zm-1252.12 132.79l0 -401.07 206.82 0c38.13,0 67.74,3.14 87.93,9.87 19.74,6.28 37.23,19.29 48.9,36.78 13.01,19.3 19.29,41.73 18.84,65.06 1.35,39.47 -18.84,77.16 -53.38,96.9 -13.46,7.62 -28.27,13.01 -43.52,15.7 11.21,3.14 22.43,8.52 32.3,14.8 7.63,6.29 13.91,13.46 19.74,21.09 6.73,7.63 12.56,16.15 17.49,25.12l60.12 116.2 -140.87 0 -66.39 -123.37c-8.53,-15.71 -15.7,-26.02 -22.43,-30.96 -8.98,-6.28 -19.74,-9.42 -30.51,-9.42l-10.77 0 0 162.85 -124.27 0 0 0.45zm124.27 -238.67l52.49 0c11.22,-0.9 21.98,-2.69 32.75,-5.38 8.08,-1.35 15.25,-5.84 20.19,-12.57 12.11,-16.15 10.32,-39.03 -4.49,-52.93 -8.07,-6.73 -23.77,-10.32 -46.2,-10.32l-54.74 0 0 81.2zm-152.53 582.32l117.99 -7.63c2.69,19.29 7.63,33.65 15.7,43.96 12.56,16.16 30.96,24.68 54.73,24.68 17.5,0 31.41,-4.04 40.83,-12.56 8.97,-7.18 14.35,-17.5 14.35,-28.71 0,-10.77 -4.93,-21.09 -13.46,-27.82 -8.97,-8.07 -30.05,-16.15 -63.7,-23.33 -54.28,-12.11 -93.32,-28.26 -116.2,-48.9 -22.87,-19.29 -35.89,-47.55 -34.99,-77.61 0,-20.64 6.28,-41.27 17.95,-58.32 13.46,-19.29 31.85,-34.55 53.83,-43.07 23.78,-10.32 56.98,-15.7 98.7,-15.7 51.14,0 90.17,9.42 117.09,28.71 26.92,19.29 42.62,49.35 47.56,91.07l-116.65 6.73c-3.14,-17.94 -9.42,-30.95 -19.74,-39.48 -9.87,-8.52 -23.77,-12.56 -41.27,-12.11 -14.36,0 -25.12,3.14 -32.3,9.42 -7.18,5.38 -11.22,13.46 -10.77,22.43 0,6.73 3.59,13.01 8.97,17.05 5.84,5.38 19.74,10.32 41.73,14.8 54.28,11.67 92.86,23.33 116.64,35.45 23.78,12.11 40.82,26.91 51.14,44.41 10.77,17.94 16.15,38.58 16.15,59.22 0,25.12 -7.62,49.8 -21.53,70.88 -14.8,21.98 -35.44,39.03 -59.67,49.35 -25.57,11.22 -57.87,17.05 -96.45,17.05 -68.19,0 -115.3,-13.01 -141.77,-39.48 -26.47,-26.92 -41.27,-60.12 -44.86,-100.49l0 0z"/>
  <path class="fil0" d="M596.67 720.49l108.57 32.75c-5.83,27.37 -17.95,53.39 -34.55,76.27 -15.25,20.19 -35.44,35.89 -58.32,46.21 -23.33,10.31 -52.93,15.7 -88.82,15.7 -43.52,0 -79.41,-6.28 -106.78,-18.84 -27.81,-12.57 -51.59,-35 -71.78,-66.85 -20.18,-31.85 -30.05,-72.68 -30.05,-122.47 0,-66.4 17.49,-117.54 52.93,-152.99 35.45,-35.44 85.24,-53.38 149.84,-53.38 50.7,0 90.18,10.32 119.34,30.51 28.71,20.63 50.24,52.04 64.6,94.21l-109.46 24.22c-2.7,-9.42 -6.73,-18.84 -12.12,-26.91 -6.73,-9.43 -15.25,-16.6 -25.57,-21.99 -10.32,-5.38 -21.98,-7.62 -33.65,-7.62 -28.26,0 -49.79,11.21 -64.6,34.09 -11.21,16.6 -17.05,43.07 -17.05,78.96 0,44.41 6.73,74.92 20.19,91.52 13.46,16.6 32.3,24.67 56.98,24.67 23.78,0 41.72,-6.72 53.83,-19.74 12.12,-13.9 21.09,-33.19 26.47,-58.32l0 0zm253.48 -236.87l123.82 0 0 140.42 135.48 0 0 -140.42 124.72 0 0 401.07 -124.72 0 0 -162.4 -135.48 0 0 162.4 -123.82 0 0 -401.07z"/>
  <path class="fil0" d="M1217.12 684.15c0,-65.5 18.39,-116.64 54.73,-152.98 36.34,-36.34 87.48,-54.73 152.54,-54.73 66.84,0 117.98,17.94 154.32,53.83 36.34,35.9 54.29,86.14 54.29,150.74 0,47.11 -8.08,85.24 -23.78,115.3 -15.25,29.61 -39.03,53.83 -68.19,69.98 -30.06,16.6 -67.3,25.13 -111.71,25.13 -45.31,0 -82.55,-7.18 -112.16,-21.54 -30.5,-15.25 -55.63,-39.03 -72.22,-68.19 -18.4,-31.4 -27.82,-70.43 -27.82,-117.54l0 0zm123.82 0.45c0,40.38 7.63,69.54 22.43,87.48 14.81,17.5 35.44,26.47 61.46,26.47 26.47,0 47.11,-8.52 61.91,-26.02 14.81,-17.49 21.99,-48.45 21.99,-93.31 0,-37.69 -7.63,-65.5 -22.88,-82.55 -15.26,-17.49 -35.89,-26.02 -61.91,-26.02 -22.88,-0.9 -44.87,8.97 -60.12,26.47 -15.25,17.5 -22.88,46.66 -22.88,87.48l0 0zm419.02 -0.45c0,-65.5 18.39,-116.64 54.73,-152.98 36.34,-36.34 87.48,-54.73 152.53,-54.73 66.85,0 118.44,17.94 154.33,53.83 35.89,35.9 54.28,86.14 54.28,150.74 0,47.11 -8.07,85.24 -23.77,115.3 -15.26,29.61 -39.04,53.83 -68.2,69.98 -30.05,16.6 -67.29,25.13 -111.7,25.13 -45.31,0 -82.55,-7.18 -112.16,-21.54 -30.51,-15.25 -55.63,-39.03 -72.23,-68.19 -18.39,-31.4 -27.81,-70.43 -27.81,-117.54l0 0zm123.82 0.45c0,40.38 7.62,69.54 22.43,87.48 14.8,17.5 35.44,26.47 61.46,26.47 26.47,0 47.11,-8.52 61.91,-26.02 14.8,-17.49 21.98,-48.45 21.98,-93.31 0,-37.69 -7.62,-65.5 -22.88,-82.55 -15.25,-17.49 -35.89,-26.02 -61.91,-26.02 -22.88,-0.9 -45.31,8.97 -60.11,26.47 -15.26,17.5 -22.88,46.66 -22.88,87.48l0 0z"/>
  <polygon class="fil0" points="2162.82,483.62 2286.64,483.62 2286.64,785.99 2480,785.99 2480,884.69 2162.37,884.69 2162.37,483.62 "/>
  <ellipse class="fil1 str0" transform="matrix(0.798625 -0.601829 0.601829 0.798625 1886.49 274.881)" rx="282.63" ry="232.39"/>
  <path class="fil2 str1" d="M1760.41 245.4l44.86 -31.41 55.18 78.51c9.42,12.57 16.6,26.02 21.98,40.83 3.14,11.21 2.24,23.33 -2.24,34.09 -5.83,13.46 -15.25,24.68 -27.82,32.75 -14.8,10.32 -27.36,16.15 -38.13,17.95 -10.32,1.79 -21.09,0 -30.95,-4.49 -10.77,-5.38 -20.19,-13.01 -27.37,-22.88l38.58 -35.89c3.14,4.94 7.18,9.42 11.67,13.01 3.14,2.25 6.72,3.59 10.76,3.59 3.14,0 6.28,-1.34 8.53,-3.14 4.48,-2.69 7.62,-8.07 7.17,-13.46 -1.34,-7.62 -4.48,-15.25 -9.42,-21.08l-62.81 -88.38 0.01 0zm134.58 49.8l40.83 -32.31c4.48,5.39 10.32,9.43 16.6,11.67 8.97,2.69 18.39,0.9 26.02,-4.94 5.38,-3.59 9.87,-8.52 11.66,-14.8 2.69,-8.08 -1.79,-17.05 -9.87,-19.74 -1.34,-0.45 -2.69,-0.9 -4.04,-0.9 -5.38,-0.45 -14.8,1.8 -28.71,7.63 -22.88,9.42 -40.82,13.01 -54.28,11.66 -13.01,-1.34 -25.13,-8.07 -32.3,-19.29 -5.39,-7.62 -8.08,-16.6 -8.53,-25.57 0,-10.32 2.69,-20.64 8.53,-29.16 8.52,-12.11 18.84,-22.43 31.4,-30.51 18.84,-13.01 35.44,-19.29 49.8,-19.29 14.35,0 27.81,6.73 40.37,20.64l-40.37 31.85c-8.08,-10.31 -23.33,-12.56 -33.65,-4.48l-1.35 1.34c-4.48,2.69 -7.62,6.73 -9.42,11.67 -1.34,3.59 -0.45,7.62 1.8,10.76 1.79,2.25 4.48,4.04 7.62,4.04 3.59,0.45 9.87,-1.34 18.85,-5.38 22.43,-9.42 39.48,-14.81 51.14,-16.6 9.87,-1.8 20.19,-0.9 29.61,3.14 8.52,3.59 15.7,9.87 20.64,17.49 6.28,8.98 9.87,19.74 10.31,30.96 0.45,11.66 -2.69,22.88 -8.97,32.75 -8.07,12.11 -18.39,22.43 -30.51,30.51 -24.67,17.04 -44.86,24.22 -61.01,21.53 -17.49,-2.69 -31.85,-11.67 -42.17,-24.68l0 0.01z"/>
 </g>
</svg>
