<?xml version="1.0" encoding="UTF-8"?>
<!DOCTYPE svg PUBLIC "-//W3C//DTD SVG 1.1//EN" "http://www.w3.org/Graphics/SVG/1.1/DTD/svg11.dtd">
<!-- Creator: CorelDRAW 2020 (64-Bit) -->
<svg xmlns="http://www.w3.org/2000/svg" xml:space="preserve" width="500px" height="142px" version="1.1" style="shape-rendering:geometricPrecision; text-rendering:geometricPrecision; image-rendering:optimizeQuality; fill-rule:evenodd; clip-rule:evenodd"
viewBox="0 0 1378.83 390.32"
 xmlns:xlink="http://www.w3.org/1999/xlink"
 xmlns:xodm="http://www.corel.com/coreldraw/odm/2003">
 <defs>
  <style type="text/css">
   <![CDATA[
    .fil1 {fill:#FEFEFE}
    .fil0 {fill:#FEFEFE;fill-opacity:0.000000}
   ]]>
  </style>
 </defs>
 <g id="Слой_x0020_1">
  <metadata id="CorelCorpID_0Corel-Layer"/>
  <g id="UUi_Navigation">
   <g id="Logotypes">
    <g id="logo_x002f_learn">
     <polygon id="bg" class="fil0" points="0,0 1378.83,0 1378.83,390.32 0,390.32 "/>
     <path id="Digital-Platform" class="fil1" d="M509.87 360.34l0 -83.47 20.86 0c25.71,0 39.45,14.89 39.45,41.36 0,26.59 -13.74,42.11 -38.94,42.11l-21.37 0zm10.56 -8.65l9.54 0c19.47,0 29.26,-12.34 29.26,-33.46 0,-21 -9.79,-32.71 -29.26,-32.71l-9.54 0 0 66.17zm70.49 8.65l0 -61.84 10.43 0 0 61.84 -10.43 0zm5.34 -74.56c-4.07,0 -7.25,-2.8 -7.25,-6.74 0,-4.07 3.18,-6.75 7.25,-6.75 4.08,0 7.25,2.68 7.25,6.75 0,3.94 -3.17,6.74 -7.25,6.74zm50.64 103.06c-15.14,0 -25.57,-5.98 -25.57,-16.67 0,-5.21 3.43,-10.18 9.03,-13.99l0 -0.51c-3.05,-1.91 -5.47,-5.22 -5.47,-10.06 0,-5.21 3.56,-9.28 6.74,-11.45l0 -0.51c-4.07,-3.3 -8.01,-9.28 -8.01,-16.67 0,-13.48 10.68,-22.01 23.28,-22.01 3.44,0 6.5,0.65 8.78,1.53l21.5 0 0 8.02 -12.72 0c2.93,2.8 5.09,7.5 5.09,12.73 0,13.23 -10.05,21.5 -22.65,21.5 -3.05,0 -6.49,-0.76 -9.29,-2.17 -2.16,1.91 -3.94,3.94 -3.94,7.38 0,3.94 2.55,6.75 10.95,6.75l11.95 0c14.38,0 21.63,4.45 21.63,14.76 0,11.45 -12.08,21.37 -31.3,21.37zm0 -55.09c7.12,0 13.11,-5.73 13.11,-14.77 0,-9.02 -5.86,-14.37 -13.11,-14.37 -7.25,0 -13.1,5.35 -13.1,14.37 0,9.04 5.97,14.77 13.1,14.77zm1.53 47.84c11.83,0 19.6,-6.11 19.6,-12.59 0,-5.74 -4.46,-7.64 -12.48,-7.64l-10.69 0c-2.41,0 -5.34,-0.25 -8.01,-1.02 -4.46,3.18 -6.37,6.87 -6.37,10.44 0,6.61 6.76,10.81 17.95,10.81zm45.55 -21.25l0 -61.84 10.43 0 0 61.84 -10.43 0zm5.34 -74.56c-4.07,0 -7.25,-2.8 -7.25,-6.74 0,-4.07 3.18,-6.75 7.25,-6.75 4.08,0 7.25,2.68 7.25,6.75 0,3.94 -3.17,6.74 -7.25,6.74zm49.24 76.09c-13.23,0 -17.68,-8.4 -17.68,-20.62l0 -34.22 -9.16 0 0 -7.89 9.67 -0.64 1.27 -17.3 8.77 0 0 17.3 16.68 0 0 8.53 -16.68 0 0 34.35c0,7.64 2.43,11.96 9.55,11.96 2.17,0 4.96,-0.89 7,-1.65l2.04 7.89c-3.44,1.14 -7.64,2.29 -11.46,2.29zm38.94 0c-10.3,0 -18.07,-6.49 -18.07,-17.56 0,-13.49 11.58,-20.23 37.91,-23.16 0,-7.89 -2.53,-15.52 -12.72,-15.52 -7.12,0 -13.61,3.31 -18.44,6.61l-4.08 -7.25c5.73,-3.69 14.38,-8.02 24.31,-8.02 15.14,0 21.5,10.06 21.5,25.45l0 37.92 -8.66 0 -0.89 -7.38 -0.37 0c-5.86,4.83 -12.73,8.91 -20.49,8.91zm3.06 -8.4c5.97,0 10.81,-2.93 16.78,-8.27l0 -17.18c-20.61,2.55 -27.73,7.63 -27.73,15.52 0,7 4.84,9.93 10.95,9.93zm61.7 8.4c-7.89,0 -11.07,-4.97 -11.07,-13.99l0 -78.13 10.43 0 0 78.88c0,3.31 1.4,4.59 2.93,4.59 0.64,0 1.15,0 2.3,-0.26l1.4 7.89c-1.4,0.64 -3.19,1.02 -5.99,1.02zm55.48 -1.53l0 -83.47 23.8 0c18.7,0 31.29,6.23 31.29,24.56 0,17.55 -12.47,25.83 -30.79,25.83l-13.74 0 0 33.08 -10.56 0zm10.56 -41.74l12.47 0c14.51,0 21.5,-5.34 21.5,-17.17 0,-12.08 -7.38,-16.03 -22.01,-16.03l-11.96 0 0 33.2zm75.32 43.27c-7.89,0 -11.06,-4.97 -11.06,-13.99l0 -78.13 10.43 0 0 78.88c0,3.31 1.4,4.59 2.93,4.59 0.63,0 1.14,0 2.29,-0.26l1.39 7.89c-1.39,0.64 -3.17,1.02 -5.98,1.02zm39.45 0c-10.31,0 -18.07,-6.49 -18.07,-17.56 0,-13.49 11.58,-20.23 37.92,-23.16 0,-7.89 -2.55,-15.52 -12.72,-15.52 -7.13,0 -13.62,3.31 -18.46,6.61l-4.07 -7.25c5.73,-3.69 14.38,-8.02 24.3,-8.02 15.15,0 21.51,10.06 21.51,25.45l0 37.92 -8.65 0 -0.89 -7.38 -0.39 0c-5.85,4.83 -12.72,8.91 -20.48,8.91zm3.05 -8.4c5.98,0 10.82,-2.93 16.8,-8.27l0 -17.18c-20.61,2.55 -27.74,7.63 -27.74,15.52 0,7 4.83,9.93 10.94,9.93zm68.33 8.4c-13.23,0 -17.68,-8.4 -17.68,-20.62l0 -34.22 -9.17 0 0 -7.89 9.67 -0.64 1.27 -17.3 8.78 0 0 17.3 16.67 0 0 8.53 -16.67 0 0 34.35c0,7.64 2.42,11.96 9.55,11.96 2.15,0 4.96,-0.89 7,-1.65l2.03 7.89c-3.44,1.14 -7.63,2.29 -11.45,2.29zm57.51 -91.61l-2.29 8.01c-2.29,-1.02 -4.71,-1.53 -7,-1.53 -5.85,0 -8.66,4.08 -8.66,11.97l0 9.79 13.12 0 0 8.53 -13.12 0 0 53.31 -10.43 0 0 -53.31 -8.39 0 0 -7.89 8.39 -0.64 0 -9.79c0,-12.6 5.73,-20.49 18.08,-20.49 3.81,0 7.5,0.89 10.3,2.04zm33.58 91.61c-15.13,0 -28.61,-11.84 -28.61,-32.32 0,-20.74 13.48,-32.58 28.61,-32.58 15.15,0 28.64,11.84 28.64,32.58 0,20.48 -13.49,32.32 -28.64,32.32zm0 -8.65c10.7,0 17.82,-9.55 17.82,-23.67 0,-14.25 -7.12,-23.92 -17.82,-23.92 -10.55,0 -17.8,9.67 -17.8,23.92 0,14.12 7.25,23.67 17.8,23.67zm48.74 7.12l0 -61.84 8.66 0 0.89 11.2 0.37 0c4.2,-7.76 10.56,-12.73 17.56,-12.73 2.68,0 4.59,0.38 6.62,1.28l-2.03 9.16c-2.04,-0.64 -3.44,-1.02 -5.99,-1.02 -5.21,0 -11.45,3.82 -15.64,14.25l0 39.7 -10.44 0zm47.97 0l0 -61.84 8.65 0 0.89 8.91 0.38 0c5.34,-5.85 11.83,-10.44 19.22,-10.44 9.41,0 14.51,4.46 17.05,11.84 6.48,-7 12.85,-11.84 20.35,-11.84 12.72,0 18.84,8.4 18.84,24.18l0 39.19 -10.44 0 0 -37.79c0,-11.57 -3.68,-16.54 -11.45,-16.54 -4.84,0 -9.8,3.18 -15.52,9.54l0 44.79 -10.44 0 0 -37.79c0,-11.57 -3.68,-16.54 -11.57,-16.54 -4.59,0 -9.8,3.18 -15.53,9.54l0 44.79 -10.43 0z"/>
     <path id="Application-name" class="fil1" d="M509.87 166.42l0 -166.42 29.52 0 0 141.5 69.22 0 0 24.92 -98.74 0zm127.74 0l0 -166.42 100.27 0 0 24.95 -70.74 0 0 42.49 59.79 0 0 24.93 -59.79 0 0 49.13 73.28 0 0 24.92 -102.81 0zm165.16 -68.19l42.49 0 -5.85 -20.36c-5.34,-17.56 -10.18,-36.64 -15.01,-54.96l-1.02 0c-4.58,18.57 -9.41,37.4 -14.76,54.96l-5.85 20.36zm62.09 68.19l-12.98 -45.04 -55.98 0 -12.98 45.04 -30.03 0 54.21 -166.42 34.6 0 54.2 166.42 -31.04 0zm81.18 -142.75l0 54.2 23.66 0c22.65,0 35.12,-9.66 35.12,-28.5 0,-19.08 -12.47,-25.7 -35.12,-25.7l-23.66 0zm94.41 142.75l-33.09 0 -35.88 -65.14 -25.44 0 0 65.14 -29.52 0 0 -166.42 56.24 0c34.6,0 61.07,12.22 61.07,49.37 0,25.44 -13.24,40.72 -33.08,47.59l39.7 69.46zm26.72 0l0 -166.42 30.28 0 51.91 93.65 17.05 35.37 1.02 0c-1.27,-17.05 -3.82,-38.16 -3.82,-56.75l0 -72.27 28.25 0 0 166.42 -30.29 0 -51.91 -93.65 -17.05 -35.36 -1.01 0c1.27,17.56 3.81,37.67 3.81,56.24l0 72.77 -28.24 0z"/>
     <g id="logo">
      <path id="Learn.svg" class="fil1" d="M328.42 26.47c-0.62,0.02 -1.24,0.08 -1.86,0.18l-117.63 25.04 0 210.24 4.42 -0.97 116.9 -24.93c4.1,-0.89 7.03,-4.53 6.99,-8.73l0 -191.93c0,-4.88 -3.93,-8.85 -8.82,-8.9zm-25.93 184.54l-66.12 14.06c-0.62,0.11 -1.24,0.17 -1.86,0.19 -4.76,-0.02 -8.6,-3.89 -8.59,-8.64 -0.01,-4.09 2.82,-7.64 6.82,-8.55l66.21 -14.07c0.59,-0.09 1.18,-0.16 1.77,-0.17 4.76,0.02 8.59,3.88 8.58,8.64 0.01,4.09 -2.82,7.64 -6.81,8.54zm0 -44.68l-66.12 14.14c-0.56,0.1 -1.12,0.16 -1.68,0.19 -2.32,0.01 -4.55,-0.91 -6.2,-2.55 -1.64,-1.64 -2.57,-3.86 -2.57,-6.18 -0.03,-4.08 2.82,-7.61 6.82,-8.45l66.21 -14.16c0.59,-0.1 1.18,-0.16 1.77,-0.18 4.41,0.07 8.07,3.42 8.53,7.82 0.45,4.38 -2.46,8.41 -6.76,9.37zm0 -44.69l-66.12 14.15c-0.59,0.1 -1.18,0.16 -1.78,0.17 -4.79,-0.02 -8.68,-3.92 -8.67,-8.72 -0.03,-4.08 2.82,-7.62 6.82,-8.45l66.21 -14.16c0.55,-0.1 1.11,-0.16 1.67,-0.17 4.81,0.01 8.69,3.92 8.68,8.72 0.03,4.08 -2.82,7.62 -6.81,8.46zm0 -44.6l-66.12 14.06c-0.62,0.1 -1.24,0.16 -1.86,0.17 -4.76,-0.02 -8.6,-3.88 -8.59,-8.63 0,-4.09 2.83,-7.63 6.82,-8.55l66.21 -14.06c0.59,-0.1 1.18,-0.16 1.77,-0.18 4.76,0.02 8.59,3.88 8.58,8.64 0.01,4.09 -2.82,7.64 -6.81,8.55zm-220.05 -50.39c-0.61,-0.1 -1.23,-0.16 -1.86,-0.18 -4.89,0.03 -8.84,4.01 -8.84,8.9l0 191.93c-0.04,4.2 2.88,7.84 6.99,8.73l116.89 24.93 4.42 0.97 0 -210.18 -117.6 -25.1zm92.05 198.61c-0.62,-0.02 -1.24,-0.08 -1.85,-0.19l-66.12 -14.06c-3.99,-0.9 -6.82,-4.45 -6.82,-8.54 -0.01,-4.76 3.84,-8.62 8.58,-8.64 0.62,0.01 1.25,0.08 1.87,0.17l66.12 14.07c3.99,0.91 6.82,4.46 6.82,8.55 0,4.75 -3.84,8.62 -8.6,8.64zm-0.17 -44.6c-0.56,-0.03 -1.13,-0.09 -1.68,-0.19l-66.12 -14.14c-4.32,-0.97 -7.22,-5.03 -6.75,-9.43 0.48,-4.4 4.18,-7.74 8.61,-7.76 0.59,0.02 1.18,0.08 1.77,0.18l66.12 14.16c4,0.84 6.85,4.37 6.82,8.45 -0.01,2.32 -0.94,4.56 -2.59,6.19 -1.65,1.64 -3.88,2.55 -6.21,2.54l0.03 0zm0.08 -44.7c-0.59,-0.01 -1.18,-0.07 -1.76,-0.17l-66.12 -14.15c-3.99,-0.84 -6.84,-4.38 -6.82,-8.46 0,-2.32 0.93,-4.54 2.58,-6.19 1.63,-1.63 3.86,-2.54 6.18,-2.53 0.56,0.01 1.12,0.07 1.69,0.17l66.12 14.16c3.99,0.83 6.84,4.37 6.82,8.45 0,4.81 -3.88,8.71 -8.69,8.72zm0.09 -44.69c-0.62,-0.01 -1.24,-0.07 -1.85,-0.17l-66.12 -14.06c-3.99,-0.91 -6.82,-4.46 -6.82,-8.55 -0.01,-4.76 3.84,-8.62 8.58,-8.64 0.62,0.01 1.25,0.08 1.87,0.18l66.12 14.06c3.99,0.92 6.82,4.46 6.82,8.55 0,4.75 -3.84,8.61 -8.6,8.63zm-129.3 -20.29c-9.82,0.04 -17.75,8 -17.75,17.81l0 186.93 17.75 0 0 -186.93 17.73 0 0 -17.81 -17.73 0zm318.63 0l-17.74 0 0 17.81 17.74 0 0 186.93 17.75 0 0 -186.93c0,-9.81 -7.93,-17.78 -17.75,-17.81zm44.26 222.55l0 26.71c0.01,4.9 -3.96,8.89 -8.86,8.9l-389.45 0c-4.9,-0.01 -8.86,-4 -8.85,-8.9l0 -26.71c-0.01,-4.9 3.95,-8.88 8.85,-8.9l150.48 0 0 8.9c-0.01,2.36 0.92,4.62 2.58,6.28 1.66,1.68 3.91,2.62 6.27,2.63l70.8 0c2.36,-0.01 4.61,-0.95 6.28,-2.63 1.66,-1.66 2.59,-3.92 2.58,-6.28l0 -8.9 150.48 0c4.89,0.02 8.85,4.01 8.84,8.9z"/>
     </g>
    </g>
   </g>
  </g>
 </g>
</svg>
