<?xml version="1.0" encoding="UTF-8"?>
<!DOCTYPE svg PUBLIC "-//W3C//DTD SVG 1.1//EN" "http://www.w3.org/Graphics/SVG/1.1/DTD/svg11.dtd">
<!-- Creator: CorelDRAW 2020 (64-Bit) -->
<svg xmlns="http://www.w3.org/2000/svg" xml:space="preserve" width="328px" height="361px" version="1.1" style="shape-rendering:geometricPrecision; text-rendering:geometricPrecision; image-rendering:optimizeQuality; fill-rule:evenodd; clip-rule:evenodd"
viewBox="0 0 425.53 468.36"
 xmlns:xlink="http://www.w3.org/1999/xlink"
 xmlns:xodm="http://www.corel.com/coreldraw/odm/2003">
 <defs>
  <style type="text/css">
   <![CDATA[
    .fil3 {fill:#016123;fill-rule:nonzero}
    .fil0 {fill:#0277BD;fill-rule:nonzero}
    .fil2 {fill:#7CC040;fill-rule:nonzero}
    .fil1 {fill:#FFC107;fill-rule:nonzero}
   ]]>
  </style>
 </defs>
 <g id="Слой_x0020_1">
  <metadata id="CorelCorpID_0Corel-Layer"/>
  <path class="fil0" d="M164.4 147.74c-13.12,0.05 -22.22,1.2 -33.21,3.1 -32.47,5.65 -38.38,17.53 -38.38,39.4l0 33.44 75.93 0 0 16.87 -78.82 0 -36.7 0c-22.24,0 -41.71,10.48 -47.87,35.6 -6.97,28.83 -7.29,46.89 0,76.99 5.52,22.45 17.7,39.29 39.95,39.29l30.64 0 0 -43.07c0,-25.02 22.66,-49.74 48.63,-49.74l61.06 0c21.28,0 42.18,-15.72 42.18,-36.93l0 -72.45c0,-20.58 -14.84,-35.96 -35.59,-39.42 0.52,-0.05 -14.81,-3.13 -27.82,-3.08zm-42.05 33.75c6.92,0 12.65,5.72 12.65,12.68 0,7.03 -5.73,12.64 -12.65,12.64 -7.07,0 -12.66,-5.61 -12.66,-12.64 0,-6.94 5.59,-12.68 12.66,-12.68z"/>
  <path class="fil1" d="M156.22 468.36c13.12,-0.04 22.22,-1.2 33.21,-3.1 32.47,-5.65 38.38,-17.52 38.38,-39.4l0 -33.43 -75.93 0 0 -16.88 78.82 0 36.71 0c22.24,0 41.7,-10.48 47.87,-35.6 6.97,-28.83 7.28,-46.88 0,-76.99 -5.53,-22.45 -17.71,-39.28 -39.96,-39.28l-30.64 0 0 43.06c0,25.03 -22.67,49.75 -48.64,49.75l-61.05 0c-21.28,0 -42.18,15.71 -42.18,36.93l0 72.44c0,20.58 14.84,35.97 35.58,39.42 -0.51,0.05 14.82,3.13 27.83,3.08zm42.06 -33.75c-6.93,0 -12.65,-5.71 -12.65,-12.67 0,-7.03 5.72,-12.64 12.65,-12.64 7.06,0 12.66,5.6 12.66,12.64 0,6.93 -5.61,12.67 -12.66,12.67z"/>
  <path id="path2400" class="fil2" d="M252.5 209.37l-7.65 -7.03 0.01 -89.23c0.01,-88.1 0.04,-89.32 2.22,-95.16 4.68,-12.49 11.7,-16.74 29.39,-17.77 10.61,-0.62 13.89,-0.18 80.06,10.73l69 11.38 0 73.7c0,56.78 -0.31,74.71 -1.35,78.13 -1.65,5.44 -7.09,12.75 -11.31,15.2 -2.09,1.22 -27.45,5.9 -75.83,14.02 -39.97,6.7 -73.63,12.38 -74.79,12.63 -1.48,0.31 -4.38,-1.65 -9.75,-6.59l0 -0.01zm96.26 -24.41c2.38,0 2.5,-0.34 2.5,-6.85 0,-6.09 -0.23,-6.85 -2.06,-6.85 -3.9,0 -7.21,-2.36 -9.06,-6.45 -1.02,-2.25 -1.65,-4.25 -1.42,-4.43 0.24,-0.18 2.67,-1.61 5.41,-3.18 13.59,-7.78 19.68,-25.24 19.72,-56.51 0.05,-37.62 -9.42,-55.45 -31.88,-60.03 -7.06,-1.44 -15.07,-0.67 -21.36,2.06 -9.38,4.07 -16.53,14.97 -20.05,30.58 -2.5,11.1 -2.47,41.48 0.05,53.2 3.7,17.19 12.45,29.93 22.94,33.42 3.89,1.3 4.43,1.94 6.06,7.18 2.54,8.14 4.81,12.09 8.43,14.67 3.62,2.57 10.78,4.29 15.19,3.64 1.67,-0.25 4.15,-0.45 5.53,-0.45l0 0zm-23.82 -39.3c-3.21,-1.6 -7.06,-7.2 -8.41,-12.21 -4.39,-16.4 -4.02,-56.98 0.62,-68.59 2.11,-5.27 6.98,-9.47 10.98,-9.47 4.43,0 9.99,5.34 12.06,11.57 3.66,11.01 4.28,47.98 1.06,63.52 -2.55,12.35 -9.33,18.66 -16.31,15.18l0 0zm70.56 7.65c9.97,-2.22 10.54,-2.71 10.54,-9.1 0,-4.97 -0.25,-5.67 -1.85,-5.19 -6.31,1.87 -7.78,1.89 -9.78,0.08 -1.95,-1.76 -2.07,-3.39 -2.07,-29.09l0 -27.23 6.32 0 6.32 0 0 -6.18 0 -6.19 -6.32 -0.71 -6.32 -0.71 0 -9.9c0,-5.44 -0.35,-10.11 -0.79,-10.37 -0.43,-0.27 -3.12,-0.65 -5.97,-0.85l-5.19 -0.38 -1.81 7.38c-0.99,4.05 -2.1,8.68 -2.47,10.27 -0.56,2.48 -1.19,2.9 -4.33,2.9l-3.66 0 0 6.84 0 6.85 3.16 0 3.16 0 0 30.59c0,37.38 0.42,38.81 12.11,41.39 3.36,0.74 3.96,0.71 8.96,-0.4l-0.01 0z"/>
  <path id="path2398" class="fil3" d="M251.95 208.37l-6.03 -6.09 0 -89.91c0,-65.19 0.34,-91.04 1.23,-94 1.56,-5.2 7.34,-11.98 12.46,-14.59 2.18,-1.11 7.23,-2.29 11.21,-2.62 5.35,-0.44 6.6,-0.32 4.81,0.47 -5.21,2.29 -9.77,6.83 -12.56,12.52l-2.93 5.95 -0.29 97.18c-0.16,53.45 -0.65,97.17 -1.09,97.17 -0.43,0 -3.5,-2.74 -6.81,-6.09l0 0.01zm74.86 -23.62c-4.99,-1.32 -10.5,-7.36 -12.9,-14.11 -1,-2.84 -2.2,-6.14 -2.66,-7.34 -0.51,-1.3 -2.55,-2.68 -5.09,-3.44 -9.42,-2.82 -18.21,-15.49 -22.03,-31.74 -2.74,-11.67 -2.66,-47.02 0.13,-57.45 4.26,-15.97 12.37,-26.31 23.11,-29.5 6.91,-2.06 11.14,-1.94 5.26,0.15 -9.91,3.51 -17.2,13.06 -21.61,28.33 -2.21,7.62 -2.42,10.41 -2.35,30.51 0.06,19.1 0.38,23.23 2.3,30.19 4.32,15.67 10.81,24.68 21.17,29.37 4.76,2.14 5.58,2.99 6.59,6.73 2.4,8.91 7.17,15.38 13.36,18.13 2.27,1.01 2.42,1.26 0.74,1.24 -1.16,-0.01 -3.87,-0.49 -6.02,-1.07zm49.83 -31.72c-8.3,-2.9 -9.58,-8.84 -9.58,-44.51 0,-24.05 -0.17,-26.67 -1.76,-26.98 -1.22,-0.24 -2.15,-2.26 -3.04,-6.66 -0.7,-3.48 -1.06,-6.68 -0.81,-7.11 0.26,-0.43 1.63,-0.79 3.04,-0.79 2.48,0 2.57,0.26 2.57,7.37l0 7.38 3.11 0 3.1 0 0.32 30.81c0.36,34.2 0.63,35.63 7.48,39.81 2.63,1.6 2.91,2.04 1.27,2 -1.16,-0.03 -3.72,-0.62 -5.7,-1.31l0 -0.01zm-48.28 -9.94c5.94,-6.21 8.16,-17.89 8.16,-43.09 0,-24.12 -2.88,-37.86 -8.8,-42 -2.15,-1.51 -2.12,-1.55 1.05,-1.55 10.78,0 14.8,14.91 13.77,51.09 -0.57,20.11 -1.89,28.05 -5.61,33.73 -1.71,2.6 -5.77,4.72 -9.09,4.72 -2.18,0 -2.16,-0.1 0.52,-2.9l0 0zm68.73 -4.48c1.15,-0.5 3.52,-0.91 5.26,-0.91 2.7,0 2.85,0.14 1.06,0.91 -1.16,0.5 -3.53,0.91 -5.27,0.91 -2.7,0 -2.85,-0.14 -1.05,-0.91zm-27.61 -72.95c4.61,-20.14 4.04,-18.69 7.38,-18.69 2.67,0 3.01,0.31 2.48,2.33 -0.34,1.28 -1.41,6.02 -2.38,10.53 -1.73,7.99 -1.85,8.2 -4.9,8.2 -2.69,0 -3.04,-0.32 -2.58,-2.37z"/>
 </g>
</svg>
